<svg width="56" height="54" viewBox="0 0 56 54" fill="none" xmlns="http://www.w3.org/2000/svg">
<path fill-rule="evenodd" clip-rule="evenodd" d="M47.121 50.454H8.87915C8.52753 50.454 8.24426 50.18 8.24426 49.8422L8.24469 13.5536C8.24469 13.2158 8.52752 12.9418 8.87915 12.9418C9.22992 12.9418 9.51361 13.2158 9.51361 13.5536L9.51404 49.2305H46.4872V4.76804H18.625C18.2746 4.76804 17.9901 4.49406 17.9901 4.15624C17.9905 3.81841 18.2742 3.54443 18.6246 3.54443H47.1222C47.4721 3.54443 47.7562 3.81841 47.7562 4.15624L47.7567 49.8411C47.7567 50.1789 47.4721 50.4529 47.1218 50.4529H47.1222L47.121 50.454Z" fill="black"/>
<path fill-rule="evenodd" clip-rule="evenodd" d="M10.4103 12.9421H17.9892V5.63431L10.4103 12.9421ZM18.6237 14.1658H8.87947C8.62269 14.1658 8.39113 14.0166 8.292 13.788C8.19416 13.5593 8.24885 13.2961 8.42957 13.1214L18.1751 3.72476C18.3571 3.54966 18.6288 3.49776 18.8655 3.5921C19.1039 3.68686 19.2577 3.90974 19.2577 4.15735L19.2582 13.554C19.2582 13.8918 18.9736 14.1658 18.6237 14.1658Z" fill="black"/>
<path fill-rule="evenodd" clip-rule="evenodd" d="M41.5865 9.25681H24.2899C23.9396 9.25681 23.655 8.98324 23.655 8.64501C23.6555 8.30718 23.9392 8.0332 24.2895 8.0332H41.5861C41.9364 8.0332 42.2205 8.30718 42.2205 8.64501C42.2205 8.98283 41.9364 9.25681 41.5861 9.25681H41.5865Z" fill="black"/>
<path fill-rule="evenodd" clip-rule="evenodd" d="M41.5865 14.1655H24.2899C23.9396 14.1655 23.655 13.8915 23.655 13.5537C23.6555 13.2159 23.9392 12.9419 24.2895 12.9419H41.5861C41.9364 12.9419 42.2205 13.2159 42.2205 13.5537C42.2205 13.8915 41.9364 14.1655 41.5861 14.1655H41.5865Z" fill="black"/>
<path fill-rule="evenodd" clip-rule="evenodd" d="M41.5865 21.4448H22.7686C22.4182 21.4448 22.1337 21.1708 22.1337 20.833C22.1341 20.4952 22.4178 20.2212 22.7681 20.2212H41.5872C41.9375 20.2212 42.2217 20.4952 42.2217 20.833C42.2217 21.1708 41.9375 21.4448 41.5872 21.4448H41.5865Z" fill="black"/>
<path fill-rule="evenodd" clip-rule="evenodd" d="M41.5865 28.6885H22.7686C22.4182 28.6885 22.1337 28.4145 22.1337 28.0766C22.1341 27.7384 22.4178 27.4648 22.7681 27.4648H41.5872C41.9375 27.4648 42.2217 27.7388 42.2217 28.0766C42.2217 28.4145 41.9375 28.6885 41.5872 28.6885H41.5865Z" fill="black"/>
<path fill-rule="evenodd" clip-rule="evenodd" d="M41.5865 35.9321H22.7686C22.4182 35.9321 22.1337 35.6581 22.1337 35.3203C22.1341 34.9825 22.4178 34.7085 22.7681 34.7085H41.5872C41.9375 34.7085 42.2217 34.9825 42.2217 35.3203C42.2217 35.6581 41.9375 35.9321 41.5872 35.9321H41.5865Z" fill="black"/>
<path fill-rule="evenodd" clip-rule="evenodd" d="M41.5865 43.1755H22.7686C22.4182 43.1755 22.1337 42.9015 22.1337 42.5637C22.1341 42.2259 22.4178 41.9519 22.7681 41.9519H41.5872C41.9375 41.9519 42.2217 42.2259 42.2217 42.5637C42.2217 42.9015 41.9375 43.1755 41.5872 43.1755H41.5865Z" fill="black"/>
<path fill-rule="evenodd" clip-rule="evenodd" d="M15.4295 23.1915C15.2625 23.1915 15.1001 23.1272 14.9809 23.0123L13.9637 22.0309C13.7159 21.792 13.7154 21.4047 13.9632 21.1658C14.2115 20.9268 14.6131 20.9268 14.8609 21.1658L15.4291 21.7145L18.6032 18.6538C18.851 18.4149 19.2526 18.4149 19.5004 18.6538C19.7486 18.8928 19.7482 19.28 19.5004 19.519L15.8786 23.0118C15.7594 23.1267 15.5975 23.191 15.4292 23.191L15.4295 23.1915Z" fill="black"/>
<path fill-rule="evenodd" clip-rule="evenodd" d="M15.4295 44.9223C15.268 44.9223 15.1044 44.8625 14.9809 44.7431L13.9637 43.7617C13.7159 43.5228 13.7154 43.1355 13.9632 42.8965C14.2115 42.6576 14.6131 42.6576 14.8609 42.8965L15.4291 43.4453L18.6032 40.385C18.851 40.1461 19.2526 40.1461 19.5004 40.385C19.7486 40.624 19.7482 41.0112 19.5004 41.2502L15.8786 44.743C15.7543 44.8625 15.592 44.9222 15.4292 44.9222L15.4295 44.9223Z" fill="black"/>
<path fill-rule="evenodd" clip-rule="evenodd" d="M15.4295 37.6786C15.2625 37.6786 15.1001 37.6144 14.9809 37.4994L13.9637 36.5181C13.7159 36.2791 13.7154 35.8918 13.9632 35.6529C14.2115 35.4139 14.6131 35.4139 14.8609 35.6529L15.4291 36.2017L18.6032 33.1414C18.851 32.9024 19.2526 32.9024 19.5004 33.1414C19.7486 33.3803 19.7482 33.7676 19.5004 34.0065L15.8786 37.4994C15.7594 37.6143 15.5975 37.6786 15.4292 37.6786L15.4295 37.6786Z" fill="black"/>
<path fill-rule="evenodd" clip-rule="evenodd" d="M15.4295 30.4349C15.268 30.4349 15.1044 30.3752 14.9809 30.2557L13.9637 29.2743C13.7159 29.0354 13.7154 28.6481 13.9632 28.4092C14.2115 28.1702 14.6131 28.1702 14.8609 28.4092L15.4291 28.9579L18.6032 25.8972C18.851 25.6583 19.2526 25.6583 19.5004 25.8972C19.7486 26.1362 19.7482 26.5235 19.5004 26.7624L15.8786 30.2552C15.7543 30.3747 15.592 30.4344 15.4292 30.4344L15.4295 30.4349Z" fill="black"/>
</svg>
