<svg width="332" height="309" viewBox="0 0 332 309" fill="none" xmlns="http://www.w3.org/2000/svg">
<path d="M258.033 167.614L255.449 148.016C254.33 139.869 250.062 132.382 243.443 126.95C236.824 121.516 228.308 118.513 219.484 118.496H188.657V106.996C188.657 104.398 187.551 101.906 185.58 100.068C183.609 98.2266 180.934 97.1917 178.143 97.1846H172.619C172.677 97.8211 172.677 98.4553 172.677 99.0918C172.677 99.8391 172.646 100.584 172.619 101.331H178.143C181.494 101.348 184.199 103.88 184.202 106.996V195.309L27.896 195.311V106.993C27.9011 103.864 30.624 101.33 33.9852 101.328H37.2806C37.2502 100.637 37.2223 99.9462 37.2223 99.2555C37.2223 98.5648 37.2223 97.874 37.2806 97.1833L33.9852 97.1809C31.1888 97.1809 28.509 98.2158 26.5308 100.055C24.5525 101.896 23.4431 104.39 23.4431 106.993V197.411C23.4456 197.454 23.4507 197.499 23.4608 197.541V227.097C23.4684 231.128 25.1909 234.99 28.2532 237.84C31.313 240.69 35.4645 242.294 39.7934 242.301H58.8004C58.8004 241.527 58.8891 240.78 58.9499 239.978C59.9529 229.955 66.2623 221.057 75.771 216.257C85.2797 211.457 96.7337 211.389 106.309 216.073C115.883 220.76 122.315 229.582 123.456 239.592C123.575 240.752 123.664 241.527 123.664 242.3H222.129C222.16 241.471 222.218 240.669 222.307 239.813C223.368 229.813 229.711 220.958 239.222 216.201C248.733 211.443 260.164 211.403 269.713 216.097C279.26 220.788 285.673 229.598 286.813 239.592C286.925 240.492 286.985 241.395 286.991 242.301H301.218C305.276 242.291 308.558 239.224 308.553 235.445V215.404V215.407C308.545 202.865 303.249 190.83 293.798 181.891C284.351 172.951 271.506 167.823 258.033 167.614L258.033 167.614ZM188.689 122.643H219.484C227.225 122.659 234.692 125.297 240.498 130.062C246.301 134.829 250.042 141.397 251.024 148.542L253.55 167.589L188.687 167.586L188.689 122.643ZM221.268 193.628L205.943 193.626C204.712 193.626 203.714 192.7 203.714 191.554C203.714 190.408 204.712 189.482 205.943 189.482H221.268C222.499 189.482 223.494 190.408 223.494 191.554C223.494 192.7 222.499 193.626 221.268 193.626V193.628Z" fill="black"/>
<path d="M91.2741 216.759C84.3235 216.721 77.6115 219.104 72.4545 223.444C67.2999 227.782 64.0754 233.759 63.4166 240.199C63.3279 241.083 63.2393 241.913 63.2393 242.797C63.2393 252.109 68.5762 260.714 77.2416 265.372C85.9067 270.028 96.5832 270.028 105.248 265.372C113.913 260.714 119.251 252.109 119.251 242.797C119.233 241.864 119.162 240.932 119.043 240.006C118.357 233.607 115.129 227.681 109.993 223.381C104.858 219.081 98.1838 216.719 91.2741 216.759ZM91.2741 252.915C88.3815 252.925 85.6003 251.866 83.5434 249.968C81.4892 248.071 80.3291 245.492 80.3164 242.797C80.3164 242.417 80.3468 242.04 80.4051 241.663C80.8053 238.337 82.9456 235.409 86.1219 233.838C89.3008 232.266 93.1056 232.256 96.292 233.81C99.4785 235.366 101.637 238.282 102.057 241.609C102.113 242.002 102.143 242.401 102.146 242.797C102.143 245.48 100.998 248.052 98.9592 249.95C96.9227 251.848 94.1569 252.913 91.2741 252.915Z" fill="black"/>
<path d="M254.622 216.759C247.669 216.723 240.954 219.109 235.795 223.447C230.635 227.782 227.403 233.759 226.734 240.199C226.645 241.083 226.584 241.913 226.584 242.797H226.587C226.587 252.105 231.921 260.705 240.582 265.361C249.241 270.014 259.913 270.014 268.573 265.361C277.233 260.705 282.568 252.105 282.568 242.797C282.563 241.866 282.502 240.932 282.391 240.006C281.699 233.61 278.47 227.683 273.335 223.386C268.201 219.088 261.529 216.723 254.622 216.759ZM254.622 252.915C251.724 252.927 248.941 251.868 246.879 249.971C244.82 248.075 243.652 245.494 243.634 242.797C243.634 242.41 243.692 242.049 243.723 241.663C244.131 238.336 246.276 235.411 249.455 233.843C252.634 232.275 256.439 232.266 259.625 233.817C262.814 235.371 264.975 238.285 265.403 241.609C265.433 242.052 265.491 242.41 265.491 242.797C265.491 245.48 264.344 248.052 262.307 249.95C260.268 251.847 257.505 252.913 254.622 252.915Z" fill="black"/>
<path d="M104.969 157.994C121.709 157.966 137.761 151.773 149.613 140.766C161.467 129.761 168.157 114.838 168.227 99.2555V99.0905C168.222 83.4721 161.553 68.4928 149.683 57.4527C137.816 46.4102 121.719 40.2103 104.939 40.2151C88.1577 40.2174 72.066 46.4247 60.2016 57.472C48.3371 68.5194 41.6757 83.4986 41.6809 99.1194C41.6834 114.738 48.3553 129.715 60.2223 140.755C72.092 151.797 88.1888 157.997 104.97 157.995L104.969 157.994ZM107.168 151.775H107.165C107.165 152.919 106.17 153.847 104.939 153.847C103.708 153.847 102.712 152.919 102.712 151.775V141.907C102.712 140.761 103.708 139.832 104.939 139.832C106.17 139.832 107.165 140.761 107.165 141.907L107.168 151.775ZM150.945 97.0182L161.546 97.0159C162.777 97.0159 163.772 97.9448 163.772 99.0905C163.772 100.234 162.777 101.163 161.546 101.163H150.942C149.711 101.163 148.716 100.234 148.716 99.0905C148.716 97.9448 149.711 97.0159 150.942 97.0159L150.945 97.0182ZM102.712 46.4195C102.712 45.2738 103.708 44.3449 104.939 44.3449C106.17 44.3449 107.165 45.2738 107.165 46.4195V56.2882C107.165 57.4315 106.17 58.3604 104.939 58.3604C103.708 58.3604 102.712 57.4315 102.712 56.2882V46.4195ZM102.712 93.8806V74.8064C102.712 73.6631 103.708 72.7342 104.939 72.7342C106.17 72.7342 107.165 73.6631 107.165 74.8064V93.9065C108.71 94.4652 109.939 95.5969 110.552 97.0302H140.073C141.302 97.0302 142.3 97.9591 142.3 99.1048C142.3 100.248 141.302 101.177 140.073 101.177H110.552C109.799 102.931 108.151 104.218 106.162 104.598C104.174 104.98 102.115 104.404 100.678 103.07C99.2422 101.733 98.6266 99.8145 99.0344 97.9638C99.4448 96.1132 100.825 94.5784 102.712 93.8806ZM48.3628 101.177C47.1318 101.177 46.1338 100.248 46.1338 99.1048C46.1338 97.9591 47.1318 97.0303 48.3628 97.0303H58.9356C60.1666 97.0303 61.162 97.9591 61.162 99.1048C61.162 100.248 60.1666 101.177 58.9356 101.177H48.3628Z" fill="black"/>
</svg>
