<svg width="56" height="54" viewBox="0 0 56 54" fill="none" xmlns="http://www.w3.org/2000/svg">
<path d="M48.5111 43.6018H7.48888C3.99916 43.6018 1.17029 40.8624 1.17029 37.5088V13.2194C1.17029 9.85431 4.01109 7.12646 7.48888 7.12646H14.2484C14.5914 7.12646 14.8606 7.38642 14.8606 7.71685C14.8606 8.04767 14.591 8.30723 14.2484 8.30723H7.48888C4.67248 8.30723 2.39485 10.5155 2.39485 13.2193V37.4961C2.39485 40.2119 4.68494 42.4082 7.48888 42.4082H48.5231C51.3395 42.4082 53.6171 40.1999 53.6171 37.4961V13.2193C53.6171 10.5035 51.327 8.30723 48.5231 8.30723H41.7636C41.4205 8.30723 41.1514 8.04727 41.1514 7.71685C41.1514 7.38602 41.421 7.12646 41.7636 7.12646H48.5231C52.0128 7.12646 54.8417 9.8658 54.8417 13.2194V37.4962C54.8417 40.8617 52.0009 43.601 48.5107 43.601L48.5111 43.6018Z" fill="black"/>
<path d="M48.8042 40.3788H7.19465C5.71295 40.3788 4.50085 39.21 4.50085 37.7812V12.9369C4.50085 11.5082 5.71295 10.3394 7.19465 10.3394H14.248C14.5911 10.3394 14.8603 10.5993 14.8603 10.9297C14.8603 11.2606 14.5907 11.5201 14.248 11.5201H7.19465C6.3863 11.5201 5.72531 12.1579 5.72531 12.937V37.7812C5.72531 38.5607 6.38669 39.1981 7.19465 39.1981H48.8162C49.6246 39.1981 50.2856 38.5603 50.2856 37.7812L50.286 12.937C50.286 12.1575 49.6246 11.5201 48.8166 11.5201H41.7633C41.4202 11.5201 41.151 11.2602 41.151 10.9297C41.151 10.5989 41.4206 10.3394 41.7633 10.3394H48.8166C50.2983 10.3394 51.5104 11.5082 51.5104 12.9369V37.7812C51.498 39.21 50.286 40.3792 48.8043 40.3792L48.8042 40.3788Z" fill="black"/>
<path d="M30.8536 48.8205C30.5105 48.8205 30.2413 48.5605 30.2413 48.2301V42.9991C30.2413 42.6682 30.5109 42.4087 30.8536 42.4087C31.1967 42.4087 31.4658 42.6686 31.4658 42.9991V48.2301C31.4658 48.5609 31.1963 48.8205 30.8536 48.8205ZM25.1473 48.8205C24.8042 48.8205 24.535 48.5605 24.535 48.2301V42.9991C24.535 42.6682 24.8046 42.4087 25.1473 42.4087C25.4904 42.4087 25.7595 42.6686 25.7595 42.9991V48.2301C25.7595 48.5609 25.4899 48.8205 25.1473 48.8205Z" fill="black"/>
<path d="M36.2042 52.9769H19.7957C19.4526 52.9769 19.1835 52.717 19.1835 52.3866V48.23C19.1835 47.8992 19.4531 47.6396 19.7957 47.6396H36.2042C36.5472 47.6396 36.8164 47.8996 36.8164 48.23V52.3866C36.8164 52.7174 36.5468 52.9769 36.2042 52.9769ZM20.4071 51.7962H35.5917V48.8204H20.4071V51.7962Z" fill="black"/>
<path d="M41.7517 36.1631H14.2482C13.9052 36.1631 13.636 35.9032 13.636 35.5727V1.61284C13.636 1.28202 13.9056 1.02246 14.2482 1.02246H41.7637C42.1068 1.02246 42.376 1.28242 42.376 1.61284V35.5727C42.3636 35.8912 42.0944 36.1631 41.7513 36.1631H41.7517ZM14.8607 34.9824H41.1523V2.2027H14.8607V34.9824Z" fill="black"/>
<path d="M19.5136 18.4392H16.8074C16.4644 18.4392 16.1952 18.1792 16.1952 17.8488V15.2393C16.1952 14.9085 16.4648 14.6489 16.8074 14.6489H19.5136C19.8567 14.6489 20.1258 14.9089 20.1258 15.2393V17.8488C20.1258 18.1796 19.8567 18.4392 19.5136 18.4392ZM17.4321 17.2585H18.9138V15.8297H17.4321V17.2585Z" fill="black"/>
<path d="M39.1792 17.1407H23.7376C23.3945 17.1407 23.1254 16.8808 23.1254 16.5503C23.1254 16.2195 23.395 15.96 23.7376 15.96H39.1792C39.5223 15.96 39.7914 16.2199 39.7914 16.5503C39.791 16.8808 39.5218 17.1407 39.1787 17.1407H39.1792Z" fill="black"/>
<path d="M19.5136 23.5281H16.8074C16.4644 23.5281 16.1952 23.2681 16.1952 22.9377V20.3282C16.1952 19.9974 16.4648 19.7378 16.8074 19.7378H19.5136C19.8567 19.7378 20.1258 19.9978 20.1258 20.3282V22.9377C20.1258 23.2685 19.8567 23.5281 19.5136 23.5281ZM17.4321 22.3473H18.9138V20.9186H17.4321V22.3473Z" fill="black"/>
<path d="M39.1792 22.2296H23.7376C23.3945 22.2296 23.1254 21.9696 23.1254 21.6392C23.1254 21.3084 23.395 21.0488 23.7376 21.0488H39.1792C39.5223 21.0488 39.7914 21.3088 39.7914 21.6392C39.791 21.9696 39.5218 22.2296 39.1787 22.2296H39.1792Z" fill="black"/>
<path d="M19.5136 28.6179H16.8074C16.4644 28.6179 16.1952 28.358 16.1952 28.0275V25.418C16.1952 25.0872 16.4648 24.8276 16.8074 24.8276H19.5136C19.8567 24.8276 20.1258 25.0876 20.1258 25.418V28.0275C20.1258 28.3464 19.8567 28.6179 19.5136 28.6179ZM17.4321 27.4372H18.9138V26.0084H17.4321V27.4372Z" fill="black"/>
<path d="M39.1792 27.307H23.7376C23.3945 27.307 23.1254 27.047 23.1254 26.7166C23.1254 26.3858 23.395 26.1262 23.7376 26.1262H39.1792C39.5223 26.1262 39.7914 26.3862 39.7914 26.7166C39.791 27.047 39.5218 27.307 39.1787 27.307H39.1792Z" fill="black"/>
<path d="M19.5136 33.7068H16.8074C16.4644 33.7068 16.1952 33.4468 16.1952 33.1164V30.5069C16.1952 30.1761 16.4648 29.9165 16.8074 29.9165H19.5136C19.8567 29.9165 20.1258 30.1765 20.1258 30.5069V33.1164C20.1258 33.4353 19.8567 33.7068 19.5136 33.7068ZM17.4321 32.5261H18.9138V31.0973H17.4321V32.5261Z" fill="black"/>
<path d="M39.1792 32.3959H23.7376C23.3945 32.3959 23.1254 32.1359 23.1254 31.8055C23.1254 31.4746 23.395 31.2151 23.7376 31.2151H39.1792C39.5223 31.2151 39.7914 31.475 39.7914 31.8055C39.791 32.1359 39.5218 32.3959 39.1787 32.3959H39.1792Z" fill="black"/>
<path d="M22.4896 13.3493H20.273C19.9299 13.3493 19.6608 13.0893 19.6608 12.7589V8.37822C19.6608 8.0474 19.9304 7.78784 20.273 7.78784H22.4896C22.8327 7.78784 23.1019 8.0478 23.1019 8.37822V12.7589C23.1019 13.0897 22.8327 13.3493 22.4896 13.3493ZM20.8853 12.1685H21.8774V8.96861H20.8853V12.1685Z" fill="black"/>
<path d="M26.8974 13.3492H24.6933C24.3502 13.3492 24.0811 13.0892 24.0811 12.7588V4.06841C24.0811 3.73759 24.3506 3.47803 24.6933 3.47803H26.8974C27.2405 3.47803 27.5097 3.73799 27.5097 4.06841V12.7592C27.5097 13.0897 27.2405 13.3492 26.8974 13.3492ZM25.3055 12.1685H26.2975V4.65879H25.3055V12.1685Z" fill="black"/>
<path d="M31.3064 13.3491H29.1022C28.7592 13.3491 28.49 13.0892 28.49 12.7588V6.60698C28.49 6.27616 28.7596 6.0166 29.1022 6.0166H31.3064C31.6494 6.0166 31.9186 6.27656 31.9186 6.60698V12.7588C31.9186 13.0896 31.6495 13.3491 31.3064 13.3491ZM29.7144 12.1684H30.7065V7.19737H29.7144V12.1684Z" fill="black"/>
<path d="M35.7262 13.3492H33.5096C33.1665 13.3492 32.8973 13.0892 32.8973 12.7588V5.22515C32.8973 4.89432 33.1669 4.63477 33.5096 4.63477H35.7262C36.0693 4.63477 36.3384 4.89473 36.3384 5.22515V12.7588C36.3384 13.0896 36.0569 13.3492 35.7262 13.3492ZM34.1219 12.1684H35.1139V5.81564H34.1219V12.1684Z" fill="black"/>
</svg>
