<svg width="332" height="309" viewBox="0 0 332 309" fill="none" xmlns="http://www.w3.org/2000/svg">
<path fill-rule="evenodd" clip-rule="evenodd" d="M272.584 30.4474V76.3592H303.62L286.302 229.604H88.172L70.8542 77.1197H71.0214L66.1201 33.7915L28.3843 33.7891V18.5859H80.9836L87.354 76.3563H118.717V48.3869H192.872V30.4462L272.584 30.4474ZM135.044 76.3592H192.869V63.5912H135.044V76.3592ZM128.511 114.522V121.363H121.976V108.442H144.028V186.736H121.976V143.408H128.511V180.654H137.495V114.521L128.511 114.522ZM181.108 108.44V186.734H159.056V143.406H165.591V180.652H174.575V114.518H165.591V121.36H159.056V108.438L181.108 108.44ZM121.976 127.745H128.511V136.866H121.976V127.745ZM111.685 145.532H95.1881L101.396 199.198H256.568V205.28L102.051 205.278L103.032 214.399H271.437L276.171 173.046H260.654V166.964H276.83L285.477 91.5606H88.9811L94.5308 139.451H111.681L111.685 145.532ZM165.589 127.745V136.866H159.054V127.745H165.589ZM128.511 255.908C126.335 253.779 123.448 252.711 119.853 252.711C116.371 252.711 113.536 253.779 111.36 255.908C109.073 258.034 107.93 260.67 107.93 263.812C107.93 267.158 109.073 269.843 111.36 271.871C113.647 274.096 116.477 275.216 119.853 275.216C123.336 275.216 126.224 274.153 128.511 272.024C130.905 269.796 132.106 267.057 132.106 263.815C132.103 260.769 130.907 258.133 128.511 255.908ZM148.438 263.81C148.438 271.312 145.608 277.592 139.945 282.66C134.61 287.83 127.91 290.414 119.853 290.414C112.016 290.414 105.319 287.779 99.7648 282.509C94.319 277.441 91.5984 271.207 91.5984 263.81C91.5984 256.513 94.3188 250.327 99.7648 245.264C105.32 240.094 112.017 237.508 119.853 237.508C127.805 237.508 134.555 240.044 140.107 245.108C145.661 250.281 148.438 256.513 148.438 263.81ZM256.247 45.6511H209.207V76.3598H256.247V45.6511ZM217.044 108.441V186.735H194.992V143.407H201.527V180.653H210.511V114.52H201.527V121.361H194.992V108.44L217.044 108.441ZM254.125 108.441V186.735H232.075V143.407H238.61V180.653H247.592V114.52H238.61V121.361H232.075V108.44L254.125 108.441ZM232.075 127.746H238.61V136.867H232.075V127.746ZM201.528 136.867H194.993V127.746H201.528V136.867ZM265.399 255.754C263.216 253.729 260.44 252.712 257.065 252.712C253.471 252.712 250.48 253.78 248.081 255.909C245.905 258.036 244.814 260.671 244.814 263.814C244.814 267.159 245.956 269.845 248.248 271.872C250.64 274.098 253.583 275.217 257.066 275.217C260.333 275.217 263.056 274.154 265.232 272.025L265.559 271.875C267.849 269.746 268.994 267.058 268.994 263.816C268.994 260.775 267.796 258.14 265.399 255.912L265.399 255.754ZM285.324 263.812C285.324 271.412 282.548 277.695 276.99 282.662C271.762 287.832 265.12 290.416 257.063 290.416C249.003 290.416 242.195 287.832 236.645 282.662C231.202 277.492 228.479 271.209 228.479 263.812C228.479 256.515 231.204 250.329 236.645 245.266C242.195 240.096 249.004 237.509 257.063 237.509C265.123 237.509 271.765 240.098 276.99 245.266C282.55 250.433 285.324 256.615 285.324 263.812Z" fill="black"/>
</svg>
