<svg width="56" height="54" viewBox="0 0 56 54" fill="none" xmlns="http://www.w3.org/2000/svg">
<g clip-path="url(#clip0_7_175)">
<mask id="mask0_7_175" style="mask-type:luminance" maskUnits="userSpaceOnUse" x="0" y="0" width="56" height="54">
<path d="M0.447388 0.431396H55.5516V53.5676H0.447388V0.431396Z" fill="white"/>
</mask>
<g mask="url(#mask0_7_175)">
<path fill-rule="evenodd" clip-rule="evenodd" d="M52.1303 0.437746C51.8146 0.457109 51.495 0.521792 51.1823 0.639212L2.79148 18.7851C1.27948 19.352 0.439043 20.7651 0.447574 22.1123C0.456119 23.4595 1.31446 24.8611 2.8337 25.4107L21.1584 32.0371C21.9061 32.3073 22.4944 32.875 22.7751 33.596L29.6469 51.2673C30.2164 52.7323 31.6703 53.56 33.0674 53.5682C34.4644 53.5764 35.9299 52.766 36.5178 51.308L55.3358 4.64544C55.822 3.43878 55.4422 2.13476 54.6133 1.33594C53.9921 0.736497 53.0765 0.38054 52.1293 0.43822L52.1303 0.437746ZM52.1807 3.11528C52.4144 3.02753 52.5362 3.0885 52.6661 3.21375C52.796 3.33899 52.8592 3.45641 52.7682 3.68176L33.9502 50.3443C33.7729 50.7835 33.4598 50.9132 33.0851 50.9108C32.7104 50.9087 32.3989 50.7748 32.2271 50.3336L25.3549 32.6634C24.7956 31.2255 23.6177 30.0884 22.1261 29.5492L3.80036 22.9228C3.34278 22.7572 3.20435 22.4568 3.20178 22.0955C3.19965 21.7342 3.3338 21.4318 3.78925 21.2612L52.1807 3.11528Z" fill="black"/>
</g>
<path fill-rule="evenodd" clip-rule="evenodd" d="M42.699 11.4983C42.3332 11.4979 41.9825 11.638 41.724 11.8872L28.8615 24.2903C28.324 24.809 28.324 25.6499 28.8615 26.169C29.3998 26.6872 30.2719 26.6872 30.8097 26.169L43.6733 13.7658V13.7654C44.2107 13.2467 44.2107 12.4058 43.6733 11.8871C43.4148 11.6379 43.0644 11.4978 42.6992 11.4978L42.699 11.4983Z" fill="black"/>
</g>
<defs>
<clipPath id="clip0_7_175">
<rect width="56" height="54" fill="white"/>
</clipPath>
</defs>
</svg>
