<svg width="56" height="54" viewBox="0 0 56 54" fill="none" xmlns="http://www.w3.org/2000/svg">
<path d="M36.3519 22.0186H35.2415C35.1061 21.5972 34.93 21.1885 34.716 20.7984L35.4996 20.0345C35.8115 19.7148 35.8115 19.2167 35.4996 18.8971L33.4932 16.9623H33.4936C33.1621 16.662 32.6455 16.662 32.314 16.9623L31.5304 17.7262C31.1237 17.5181 30.6969 17.3484 30.2564 17.2198V16.1405C30.2564 15.9205 30.1654 15.7091 30.0039 15.5534C29.8424 15.3976 29.6237 15.3103 29.3951 15.3103H26.5886C26.113 15.3103 25.7272 15.6819 25.7272 16.1405V17.2198C25.2863 17.3471 24.8591 17.5169 24.4532 17.7262L23.6953 16.9294C23.3642 16.6286 22.8472 16.6286 22.5161 16.9294L20.5097 18.8637C20.1983 19.1834 20.1983 19.6815 20.5097 20.0012L21.2933 20.765C21.0763 21.1654 20.9002 21.5852 20.7682 22.0187H19.6574C19.1819 22.0187 18.7965 22.3903 18.7965 22.8488V25.5807C18.7965 25.8007 18.8871 26.012 19.0486 26.1678C19.2101 26.3231 19.4288 26.4108 19.6574 26.4108H20.7682C20.9049 26.8348 21.0805 27.2459 21.2933 27.6393L20.5097 28.3949C20.1983 28.7146 20.1983 29.2127 20.5097 29.5324L22.5161 31.4671C22.8472 31.7675 23.3642 31.7675 23.6953 31.4671L24.4789 30.7115C24.8882 30.9142 25.3146 31.0836 25.7533 31.2179V32.289C25.7533 32.509 25.8439 32.7204 26.0054 32.8761C26.1669 33.0318 26.3861 33.1192 26.6142 33.1192H29.4468C29.6754 33.1192 29.8941 33.0318 30.0556 32.8761C30.2171 32.7204 30.3077 32.509 30.3077 32.289V31.1515C30.746 31.0156 31.172 30.8463 31.5821 30.6452L32.3657 31.4008V31.4004C32.6972 31.7011 33.2138 31.7011 33.5453 31.4004L35.4995 29.4909C35.8114 29.1716 35.8114 28.6731 35.4995 28.3534L34.7159 27.5978V27.5982C34.9287 27.2044 35.1043 26.7932 35.2415 26.3693H36.3518C36.5804 26.3693 36.7992 26.282 36.9607 26.1262C37.1222 25.9705 37.2132 25.7591 37.2132 25.5391V22.7994C37.1858 22.3602 36.8082 22.0178 36.3519 22.0186ZM35.491 24.7501H34.5955C34.2063 24.7579 33.8709 25.0166 33.7777 25.3812C33.6273 26.0565 33.353 26.7 32.9685 27.2825C32.7656 27.603 32.8117 28.015 33.0805 28.2869L33.726 28.9094L32.9083 29.7396L32.2537 29.1171C31.9717 28.8584 31.5445 28.8139 31.2117 29.0092C30.6105 29.3795 29.9458 29.6436 29.2489 29.7899C28.8516 29.8801 28.5747 30.227 28.5859 30.62V31.5083H27.4233V30.5203C27.4344 30.1273 27.1576 29.7804 26.7607 29.6902C26.0621 29.5476 25.3969 29.2831 24.7975 28.9099C24.4646 28.7142 24.0378 28.7587 23.7554 29.0178L23.1009 29.6403L22.24 28.8102L22.8945 28.1876V28.1872C23.1633 27.9153 23.209 27.5033 23.0065 27.1828C22.6373 26.6163 22.3724 25.993 22.2229 25.3395C22.1306 24.9782 21.7999 24.7199 21.4137 24.7088H20.4925V23.6042H21.4137C21.8021 23.5918 22.134 23.3298 22.2229 22.9652C22.3746 22.2916 22.6518 21.6501 23.0411 21.0722C23.2483 20.7496 23.2021 20.3326 22.9291 20.0591L22.2746 19.4366L23.1355 18.6064L23.79 19.2376V19.2372C24.072 19.4963 24.4993 19.5404 24.8321 19.3451C25.4311 18.9694 26.0964 18.702 26.7948 18.5566C27.1764 18.4696 27.4489 18.1454 27.4579 17.7676V16.9123H28.6205V17.801C28.6294 18.1788 28.902 18.503 29.2831 18.5895C29.9821 18.7349 30.6473 19.0023 31.2463 19.3785C31.5791 19.5738 32.0059 19.5297 32.2883 19.2705L32.9429 18.6394L33.7606 19.4695L33.1146 20.0924C32.8416 20.3656 32.7955 20.7825 33.0027 21.1051C33.3868 21.6852 33.6607 22.3262 33.8119 22.9982C33.9055 23.3628 34.2409 23.6215 34.6301 23.6293H35.5512L35.491 24.7501Z" fill="black"/>
<path d="M28 19.9346C26.638 19.9297 25.3511 20.5361 24.5175 21.5752C23.6844 22.6138 23.3994 23.9672 23.7463 25.2374C24.0933 26.5075 25.0328 27.5499 26.2889 28.0578C27.5449 28.5657 28.9746 28.4817 30.1571 27.8304C31.3401 27.179 32.1417 26.0346 32.3263 24.7331C32.5108 23.432 32.0575 22.1219 31.0992 21.1884C30.2819 20.3875 29.1654 19.9359 27.9999 19.9347L28 19.9346ZM29.9201 26.0122V26.0118C29.4108 26.5017 28.7212 26.7765 28.0022 26.7761C27.2831 26.7752 26.594 26.4996 26.086 26.0089C25.5775 25.5187 25.2921 24.8537 25.2921 24.1608C25.2921 23.4674 25.5775 22.8025 26.086 22.3123C26.5939 21.8216 27.2831 21.546 28.0022 21.5456C28.7213 21.5447 29.4108 21.8195 29.9201 22.3094C30.4277 22.8009 30.7131 23.4667 30.7131 24.1609C30.7131 24.8547 30.4277 25.5205 29.9201 26.012V26.0122Z" fill="black"/>
<mask id="mask0_7_205" style="mask-type:luminance" maskUnits="userSpaceOnUse" x="0" y="7" width="56" height="40">
<path d="M0.447388 7.69922H55.5516V46.4062H0.447388V7.69922Z" fill="white"/>
</mask>
<g mask="url(#mask0_7_205)">
<path d="M54.6909 39.0054H53.2101V11.2249C53.2075 10.3029 52.8268 9.41963 52.1509 8.76741C51.4746 8.11565 50.5585 7.74856 49.6024 7.74609H6.39705C5.44087 7.74857 4.52488 8.11565 3.8485 8.76741C3.1726 9.41959 2.79192 10.3029 2.78936 11.2249V39.0054H1.30853C0.833003 39.0054 0.447632 39.377 0.447632 39.8356C0.447632 43.7708 3.36663 46.3198 7.88688 46.3198H48.1041C52.6329 46.3198 55.5519 43.7708 55.5519 39.8356C55.5519 39.6156 55.4613 39.4042 55.2998 39.2485C55.1383 39.0927 54.919 39.0054 54.6909 39.0054ZM4.46041 11.2249C4.44888 10.7223 4.64797 10.2366 5.01242 9.87736C5.37686 9.51769 5.87631 9.31542 6.39754 9.31542H49.6029C50.1241 9.31542 50.6236 9.5177 50.988 9.87736C51.3529 10.2366 51.5515 10.7223 51.54 11.2249V39.0054H4.46061L4.46041 11.2249ZM48.1043 44.6838H7.88713C4.60676 44.6838 2.52305 43.1809 2.1701 40.6155L53.8301 40.6159C53.4772 43.1813 51.3936 44.6838 48.1041 44.6838L48.1043 44.6838Z" fill="black"/>
</g>
<path d="M30.9444 41.8447H25.0552C24.6719 41.9374 24.4032 42.2695 24.4032 42.6502C24.4032 43.0308 24.6719 43.3629 25.0552 43.4556H30.9444C31.3272 43.3629 31.5959 43.0308 31.5959 42.6502C31.5959 42.2695 31.3272 41.9374 30.9444 41.8447Z" fill="black"/>
<path d="M46.9853 11.5657H9.00588C8.55812 11.5657 8.1279 11.7338 7.80615 12.0345C7.48486 12.3353 7.2973 12.7448 7.28406 13.1765V35.1531C7.2973 35.5848 7.48486 35.9943 7.80615 36.2951C8.12786 36.5958 8.5581 36.7639 9.00588 36.7639H46.9853C47.433 36.7639 47.8632 36.5958 48.185 36.2951C48.5063 35.9943 48.6938 35.5848 48.7071 35.1531V13.1765C48.6938 12.7448 48.5063 12.3352 48.185 12.0345C47.8633 11.7338 47.433 11.5657 46.9853 11.5657ZM46.9853 35.1527H8.94573L9.00597 13.1762H46.9853H47.0627V35.12C47.0439 35.1423 47.0148 35.1542 46.9853 35.153L46.9853 35.1527Z" fill="black"/>
</svg>
