<svg width="56" height="54" viewBox="0 0 56 54" fill="none" xmlns="http://www.w3.org/2000/svg">
<path d="M49.4649 15.9184C49.4572 15.8986 49.4512 15.8792 49.4418 15.8611C49.4012 15.777 49.3495 15.7 49.2824 15.6328C49.2705 15.6205 49.2559 15.6114 49.2427 15.5995C49.2098 15.5702 49.179 15.5397 49.1419 15.5154L28.4776 2.23164C28.1884 2.04583 27.812 2.04583 27.5227 2.23164L6.85852 15.5154C6.82049 15.5393 6.79059 15.5702 6.75769 15.5995C6.74487 15.611 6.73034 15.6201 6.71795 15.6328C6.65088 15.7 6.59832 15.7775 6.55859 15.8611C6.55005 15.88 6.54321 15.8986 6.53552 15.9184C6.49963 16.0098 6.47485 16.1062 6.47485 16.2067V19.5277C6.47485 19.9859 6.8598 20.3579 7.33576 20.3579H8.19666V51.0778C8.19666 51.5359 8.5816 51.9079 9.05756 51.9079H46.9418C47.4177 51.9079 47.8027 51.5359 47.8027 51.0778L47.8031 20.3579H48.664C49.14 20.3579 49.5249 19.9859 49.5249 19.5277V16.2067C49.5253 16.1062 49.5001 16.0098 49.4651 15.9184H49.4649ZM18.5292 31.9812H37.4708V33.6415L18.5292 33.6419V31.9812ZM18.5292 35.3022H37.4708V36.9625H18.5292V35.3022ZM18.5292 38.6232H37.4708V40.2835H18.5292V38.6232ZM18.5292 41.9442H37.4708V43.6045H18.5292V41.9442ZM18.5292 45.2652H37.4708V46.9255H18.5292V45.2652ZM38.3316 27.0002H17.6673V23.6792H38.3316V27.0002ZM37.4707 28.6605V30.3207L18.5291 30.3212V28.6609L37.4707 28.6605ZM18.5291 50.2467V48.5865H37.4707V50.2467H18.5291ZM46.0818 50.2467H39.1936V28.6605C39.6696 28.6605 40.0546 28.2884 40.0546 27.8303V22.849C40.0546 22.3909 39.6696 22.0189 39.1936 22.0189L16.8079 22.0184C16.3319 22.0184 15.947 22.3905 15.947 22.8486V27.8299C15.947 28.288 16.3319 28.66 16.8079 28.66V50.2463H9.91976V20.3575H46.0813L46.0818 50.2467ZM47.8035 18.6968H8.19776V17.0365H15.9468V15.3762H10.1806L28.0011 3.92023L45.8216 15.3762H21.1137V17.0365H47.8045L47.8035 18.6968Z" fill="black"/>
<path d="M41.7758 36.1326H43.4975V37.7929H41.7758V36.1326Z" fill="black"/>
<path d="M41.7758 39.4536H43.4975V41.1139H41.7758V39.4536Z" fill="black"/>
<path d="M17.6685 15.3762H19.3902V17.0365H17.6685V15.3762Z" fill="black"/>
</svg>
